<?xml version="1.0" encoding="UTF-8"?>
<svg id="Layer_1" data-name="Layer 1" xmlns="http://www.w3.org/2000/svg" viewBox="0 0 415.55 508.17">
  <defs>
    <style>
      .cls-1 {
        fill: #f26522;
      }

      .cls-1, .cls-2, .cls-3, .cls-4 {
        stroke-width: 0px;
      }

      .cls-2 {
        fill: #fff;
      }

      .cls-3 {
        fill: #c66a2c;
      }

      .cls-4 {
        fill: #306442;
      }
    </style>
  </defs>
  <g>
    <path class="cls-4" d="m161.86,114.93c.15,1.13-.03-.37-.04-.48-.04-.38-.07-.75-.09-1.13-.06-.83-.09-1.66-.09-2.5-.01-1.59.07-3.18.25-4.76.02-.21.2-1.25.03-.25.06-.37.12-.75.18-1.12.15-.82.32-1.64.51-2.45.39-1.62.89-3.21,1.47-4.78.73-1.98-.47-4.68-2.3-5.65-2.11-1.11-4.27-.69-6.06.78-2.78,2.29-4.73,5.75-5.29,9.3-.67,4.27.22,8.6.92,12.82,1.22,7.34,2.97,14.58,5.2,21.67l9.64-2.66c-.94-2.36-1.74-4.78-2.36-7.25-.31-1.23-.58-2.48-.8-3.73-.12-.66-.22-1.33-.32-1.99.08.49.06.48,0,0-.04-.37-.09-.74-.12-1.12-.25-2.53-.34-5.08-.25-7.62.04-1.27.13-2.54.26-3.81.03-.3.07-.6.1-.89.05-.48.07-.49,0,0,.12-.74.23-1.48.37-2.22l-9.82-1.33c-1.18,12.06.65,24.12,2.42,36.03l9.14-3.85c-.47-1.08.19.57-.18-.44-.18-.48-.37-.96-.55-1.45-.3-.83-.57-1.67-.83-2.52-.53-1.77-.95-3.56-1.29-5.37-.16-.87-.3-1.75-.43-2.62.17,1.16-.03-.31-.04-.43-.05-.44-.09-.88-.14-1.33-.17-1.85-.27-3.71-.3-5.57-.06-3.66.12-7.31.45-10.95.08-.85.17-1.7.26-2.55.13-1.17-.17.83.04-.23.08-.39.14-.78.22-1.16.16-.71.31-1.6.67-2.23-.64,1.12.12-.12.26-.34.67-1.08-.4.38.26-.35,1.76-1.93,2.05-5.19,0-7.07-1.93-1.77-5.18-2.05-7.07,0-6.84,7.42-7.35,17.84-5.03,27.2,1.16,4.67,2.97,9.13,4.5,13.68.74,2.2,1.42,4.43,1.94,6.7.14.6.26,1.21.37,1.81.04.2.28,2.08.16.95.13,1.23.21,2.45.21,3.69l9.32-2.52c-.26-.53-.52-1.07-.77-1.61-.12-.27-.24-.54-.36-.82.22.51.21.5,0-.04-.37-.97-.74-1.94-1.07-2.93-.7-2.12-1.27-4.27-1.72-6.45-.21-1.02-.4-2.05-.56-3.08-.03-.2-.28-2.07-.14-.89-.07-.59-.14-1.19-.2-1.78-.22-2.15-.34-4.31-.39-6.48-.1-4.8.18-9.61.65-14.39.24-2.45.54-4.9.86-7.34.02-.19.2-1.51.08-.63.09-.65.18-1.3.27-1.95.18-1.3.37-2.6.55-3.9.29-2.06-.04-3.9-1.79-5.26-1.52-1.17-3.87-1.48-5.55-.39-4.28,2.78-6.39,7.6-6.38,12.62s2.22,9.45,3.48,14.17c.32,1.19.58,2.4.79,3.62.03.19.28,2.08.15.96.07.61.13,1.23.18,1.84.19,2.32.22,4.64.16,6.97-.15,5-.77,9.97-1.4,14.93l7.52-4.32c-.14-.08-.45-.33-.57-.36-.05-.01.88.55.39.25-.16-.1-.58-.7-.14-.1s.08.1.01-.02c-.1-.18-.21-.39-.32-.57-.28-.45.09-.41.09.27,0-.39-.33-.94-.43-1.32-.49-1.75-.69-3.55-1.09-5.32-.99-4.43-2.92-8.58-5.78-12.1s-6.97-5.52-10.94-7.7c-.79-.44-1.57-.9-2.33-1.4-.37-.24-.74-.5-1.1-.76-.13-.09-.8-.57-.26-.18.59.42-.37-.3-.4-.32-1.43-1.18-2.76-2.47-3.96-3.88-.16-.19-.32-.39-.49-.59-.38-.44.19.26.2.26-.3-.18-.68-.94-.87-1.23-.52-.78-1-1.59-1.43-2.42-.18-.35-.51-.79-.57-1.17.02.12.4,1.05.07.17-.06-.17-.13-.35-.19-.52-.31-.87-.57-1.75-.76-2.65-.05-.24-.09-.48-.14-.72-.13-.59.2-.28.02.24.1-.29-.09-.99-.1-1.29-.04-.76-.21-2.07.08-2.79-.04.09-.24,1.17,0,.24.04-.18.08-.36.13-.54.06-.24.16-.47.21-.7.13-.56-.09.36-.16.35-.13-.01,1.25-1.77.21-.48.2-.25.18-.47,0-.08-.29.2-.33.24-.11.1.13-.09.27-.16.41-.23,0,.03-.97.39-.46.24.64-.19-1.07.07-.4.04,1.11-.06-.76-.27.03,0-.09-.03-1.09-.54-.39-.12-.31-.18-.55-.39-.77-.67-.12-.16-.41-1.12-.35-.57.03.25.12.51.17.76.35,1.84.76,3.62,1.45,5.36,1.57,3.98,3.77,7.59,6.76,10.68,3.41,3.52,7.45,5.76,11.94,7.58.53.21-.28-.12-.31-.13.3.08.59.27.86.4.45.22.89.46,1.31.73.16.1.72.61.25.15-.55-.53.28.37.32.36-.04.01-.51-.81-.28-.39.44.79-.07-.05-.04-.3,0,.07.1.35.14.41.38.77-.15.05.01-.33-.03.07.02.54.02.58.06.71-.05-.35.09-.49.02-.02-.15.49-.14.53l.3-.7c-.2.33-.17.31.11-.07.51-.6.18-.23.06-.11.66-.46.82-.6.49-.4-.34.18-.15.1.57-.25l4.86,1.29c-4.34-4.83-9.81-8.34-15.86-10.63-1.85-.7-4.14.35-5.26,1.79s-1.59,3.99-.39,5.55c3.93,5.11,8.77,8.81,14.76,11.19l-2.21-8.36c-2.78,2.23-3.19,6.65-1.39,9.58l7.85-6.06c-6.08-5.17-12.34-10.19-18.23-15.57-.63-.57-1.24-1.16-1.83-1.78-.29-.31-.58-.62-.85-.94-.14-.16-.27-.33-.41-.49-.47-.55.39.62.01,0-.47-.77-.92-1.54-1.37-2.31.42.72.03.08-.11-.33-.15-.45-.28-.92-.37-1.38-.04-.17-.13-.43-.11-.6,0,.03.03.91.07.32.03-.38.02-.83,0-1.21-.04-.65-.03.38-.06.33-.04-.06.11-.51.13-.59.05-.2.11-.39.16-.58.19-.67.11-.11-.08.21l-2.01.77c-.95.96-1.84,1.09-2.68.4-1.12-.63-.7-.42-.41-.11-.55-.6-.18-.18.05.25.5.95.96,1.92,1.43,2.88,2.09,4.21,4.19,8.43,6.28,12.64l7.85-6.06c-3.67-3.16-7.16-6.52-10.46-10.08-1.78-1.92-5.29-1.94-7.07,0-1.89,2.06-1.9,5.02,0,7.07,3.3,3.55,6.79,6.91,10.46,10.08,1.9,1.64,4.5,1.98,6.57.39s2.41-4.19,1.29-6.45c-2.2-4.44-4.41-8.87-6.61-13.31-1.35-2.71-2.76-5.56-5.9-6.52-3.93-1.19-7.03,1.47-8.29,4.98-1.67,4.67-.18,10.32,2.61,14.25s6.54,6.89,10.18,9.99c4.23,3.6,8.46,7.19,12.68,10.79,1.91,1.63,4.49,1.99,6.57.39,1.92-1.48,2.6-4.31,1.29-6.45-.27-.46-.22-.34.14.37.15.48.15.97,0,1.45.16-.51.1-.39-.15.36-.5.59-.55.71-.16.36,1.35-1.08,1.72-3.29,1.29-4.86-.5-1.82-1.82-2.83-3.49-3.49-.51-.2-.3-.14.08.04-.24-.12-.49-.22-.73-.34-.55-.26-1.08-.54-1.61-.84-1-.57-1.93-1.22-2.88-1.87.35.24.46.38.06.04-.21-.17-.41-.34-.62-.52-.41-.35-.8-.72-1.19-1.09-.43-.42-.85-.86-1.26-1.31-.22-.24-1.3-1.58-.63-.7l-5.65,7.34c.32.12.63.25.95.37.56.22-.74-.36.12.06.61.3,1.23.58,1.83.9,1.14.6,2.25,1.27,3.31,2,.28.19.56.39.83.59.42.3.3.22-.04-.04.53.42,1.06.85,1.57,1.3,1.02.9,1.97,1.87,2.88,2.88,1.15,1.27,3.25,1.79,4.86,1.29,5.67-1.76,7.52-8.88,4.31-13.67-1.53-2.29-3.83-3.8-6.32-4.87-.75-.32-1.5-.64-2.26-.94-.23-.09-.9-.31.14.06-.23-.08-.46-.2-.68-.3-.95-.44-1.87-.94-2.75-1.5-.47-.3-.92-.62-1.37-.93-.24-.16-.76-.39.13.11-.19-.11-.41-.33-.57-.47-.8-.68-1.55-1.4-2.27-2.17-.33-.36-.66-.73-.97-1.11-.11-.13-.59-.77-.18-.22s-.06-.1-.16-.23c-.64-.9-1.23-1.84-1.75-2.82-.23-.43-.45-.87-.66-1.32-.53-1.14.23.67-.21-.5-.37-.98-.68-1.98-.92-2.99s-.32-2.01-.62-2.98c-.59-1.86-1.74-3.53-3.43-4.56-2.7-1.65-6.1-1.56-8.87-.15-2.62,1.33-4.34,4.08-5.11,6.84-1.27,4.53-.62,9.74,1.14,14.04s4.63,8.5,8.24,11.76c1.82,1.65,3.81,3.16,5.91,4.43s4.36,2.27,6.46,3.54c.25.15.5.31.75.47.18.12,1.23.88.43.26.47.37.91.77,1.33,1.19s.79.88,1.19,1.31c-.67-.71-.21-.29-.06-.07.23.33.45.65.66.98.32.5.61,1.02.89,1.55.15.28.85,1.86.42.8.5,1.24.92,2.51,1.24,3.81.55,2.18.75,4.45,1.42,6.6.95,3.02,2.63,5.7,5.41,7.32,1.54.9,3.5.9,5.05,0,1.67-.98,2.24-2.5,2.48-4.32,1.2-9.41,2.21-18.85.39-28.26-.85-4.38-2.7-8.46-3.65-12.81-.1-.59-.1-.6-.02-.03-.02-.23-.04-.46-.06-.69-.03-.46-.03-.93,0-1.39l.02-.35c.06-.56.04-.47-.06.29-.12-.21.23-1.13.3-1.36.06-.22.13-.44.21-.66.16-.42.16-.43,0-.04-.47.63.29-.43.37-.6.3-.44.24-.38-.2.2.14-.17.29-.34.45-.5.16-.16.32-.31.49-.45-.57.43-.64.49-.19.19l-7.34-5.65c-1.48,10.37-3.04,20.82-2.75,31.32.27,9.92,2.17,19.72,6.57,28.67.93,1.89,3.66,2.94,5.65,2.3,2.1-.68,3.67-2.55,3.67-4.82-.01-9.64-4.29-18.2-6.93-27.26-.3-1.04-.58-2.08-.82-3.14-.14-.6-.26-1.2-.37-1.81-.04-.19-.3-2.08-.17-.96-.22-1.88-.28-3.77-.12-5.65.02-.26.05-.53.08-.79-.1.68-.1.73-.01.16.1-.52.19-1.03.31-1.54.21-.89.5-1.75.8-2.61.33-.95-.38.76.2-.4.2-.4.41-.8.65-1.19s.51-.96.85-1.29c-.92.86.29-.3.46-.48l-7.07-7.07c-3.14,3.45-3.98,7.67-4.46,12.17-.44,4.08-.68,8.18-.63,12.28.1,8.72,1.62,17.23,5.13,25.23,1,2.27,4.18,2.91,6.24,2.05,2.47-1.04,3.27-3.39,2.89-5.9-.2-1.38-.41-2.76-.61-4.14-.11-.73-.21-1.46-.31-2.19-.05-.33-.09-.65-.13-.98.12.88-.03-.22-.05-.38-.37-2.85-.7-5.7-.94-8.56-.48-5.7-.58-11.43-.02-17.13.24-2.47-2.09-4.61-4.34-4.91s-5.04,1.13-5.49,3.58c-2.06,11.37-1.16,23.19,3.14,33.96.97,2.42,3.38,4.39,6.15,3.49,2.5-.81,4.33-3.48,3.49-6.15-2.04-6.48-3.68-13.09-4.88-19.78-.3-1.65-.57-3.31-.81-4.97-.06-.4-.11-.79-.17-1.19-.05-.37-.04-.32.02.15l-.06-.47c-.08-.87-.17-1.73-.16-2.6,0-.39.04-.78.05-1.18-.03.93.05-.18.1-.38.06-.26.15-.5.22-.76.33-1.16-.49.8.1-.26.16-.29.31-.58.48-.86.27-.44.44-.63.01-.11.51-.61,1.06-1.16,1.67-1.66l-8.36-4.86c-2.72,7.33-3.27,15.08-2.22,22.78.35,2.6,3.82,4.25,6.15,3.49,2.86-.93,3.87-3.36,3.49-6.15h0Z"/>
    <g>
      <path class="cls-2" d="m111.28,125.7c-16.6,3.26-36.84,9.64-57.2,22.4-4.95,3.1-10.63,6.7-17.3,12.7-22.96,20.65-30.76,45.6-33.2,55-1.59,6.11-5.14,21.89-2.8,42,.84,7.19,2.23,18.35,8.2,31.2,11,23.67,29.64,36.1,39.2,42.3,9.98,6.47,18.59,9.92,29.5,14.3,13.58,5.45,25.48,8.8,34.3,10.9v-86.9c-.35-.17-.85-.43-1.45-.75-2.9-1.57-10.72-5.81-15.32-14.12-4.02-7.25-3.75-14.31-3.58-17.63.55-10.88,5.86-18.35,7.98-21.03,4.35-5.49,9.29-8.52,12.23-10.03l-.03-80.33h-.53Z"/>
      <path class="cls-2" d="m151.69,508.17c16.6-3.26,36.84-9.64,57.2-22.4,4.95-3.1,10.63-6.7,17.3-12.7,22.96-20.65,30.76-45.6,33.2-55,1.59-6.11,5.14-21.89,2.8-42-.84-7.19-2.23-18.35-8.2-31.2-11-23.67-29.64-36.1-39.2-42.3-9.98-6.47-18.59-9.92-29.5-14.3-13.58-5.45-25.48-8.8-34.3-10.9v86.9c.35.17.85.43,1.45.75,2.9,1.57,10.72,5.81,15.32,14.12,4.02,7.25,3.75,14.31,3.58,17.63-.55,10.88-5.86,18.35-7.98,21.03-4.35,5.49-9.29,8.52-12.23,10.03l.03,80.33h.53Z"/>
    </g>
    <g>
      <path class="cls-1" d="m263.86,0c-16.6,3.26-36.84,9.64-57.2,22.4-4.95,3.1-10.63,6.7-17.3,12.7-22.96,20.65-30.76,45.6-33.2,55-1.59,6.11-5.14,21.89-2.8,42,.84,7.19,2.23,18.35,8.2,31.2,11,23.67,29.64,36.1,39.2,42.3,9.98,6.47,18.59,9.92,29.5,14.3,13.58,5.45,25.48,8.8,34.3,10.9v-86.9c-.35-.17-.85-.43-1.45-.75-2.9-1.57-10.72-5.81-15.32-14.12-4.02-7.25-3.75-14.31-3.58-17.63.55-10.88,5.86-18.35,7.98-21.03,4.35-5.49,9.29-8.52,12.23-10.03l-.03-80.33h-.53Z"/>
      <path class="cls-2" d="m304.28,382.47c16.6-3.26,36.84-9.64,57.2-22.4,4.95-3.1,10.63-6.7,17.3-12.7,22.96-20.65,30.76-45.6,33.2-55,1.59-6.11,5.14-21.89,2.8-42-.84-7.19-2.23-18.35-8.2-31.2-11-23.67-29.64-36.1-39.2-42.3-9.98-6.47-18.59-9.92-29.5-14.3-13.58-5.45-25.48-8.8-34.3-10.9v86.9c.35.17.85.43,1.45.75,2.9,1.57,10.72,5.81,15.32,14.12,4.02,7.25,3.75,14.31,3.58,17.63-.55,10.88-5.86,18.35-7.98,21.03-4.35,5.49-9.29,8.52-12.23,10.03l.03,80.33h.53Z"/>
    </g>
  </g>
  <path class="cls-3" d="m156.03,122.55c22.29-2.22,44.63-3.98,67-5.25,6.3-.36,12.59-.68,18.89-.96,3.2-.14,3.22-5.15,0-5-22.38,1.01-44.74,2.49-67.06,4.45-6.28.55-12.56,1.14-18.84,1.77-1.34.13-2.5,1.05-2.5,2.5,0,1.25,1.15,2.63,2.5,2.5h0Z"/>
  <path class="cls-3" d="m157.98,150.91c23.96,4.89,49.17,3.29,72.31-4.66,6.53-2.24,12.89-4.98,19.01-8.17,2.85-1.49.33-5.81-2.52-4.32-20.78,10.85-44.4,15.91-67.81,14.79-6.61-.32-13.17-1.14-19.65-2.46-1.32-.27-2.7.38-3.08,1.75-.34,1.24.42,2.8,1.75,3.08h0Z"/>
  <path class="cls-3" d="m181.12,189.07c13.21,1.22,26.69-.67,39.04-5.52,5.95-2.34,11.74-5.13,17.4-8.09,5-2.62,9.89-5.5,14.39-8.91,5.22-3.96,9.85-8.56,13.44-14.07,1.76-2.7-2.57-5.21-4.32-2.52-5.94,9.13-15.16,15.36-24.61,20.43-10.8,5.8-22.05,10.9-34.21,12.97-6.97,1.18-14.1,1.37-21.14.72-1.35-.12-2.5,1.24-2.5,2.5,0,1.46,1.15,2.38,2.5,2.5h0Z"/>
  <path class="cls-3" d="m210.16,211.12c17.27,1.75,35.49,3.07,51.94-3.63,1.25-.51,2.13-1.66,1.75-3.08-.33-1.18-1.82-2.26-3.08-1.75-16.07,6.54-33.75,5.16-50.61,3.45-1.35-.14-2.5,1.25-2.5,2.5,0,1.47,1.15,2.36,2.5,2.5h0Z"/>
  <path class="cls-3" d="m161.05,89.26c4.54-3.84,9.11-7.39,14.87-9.17s12.29-2.44,18.52-2.37c12.36.14,24.85,2.83,36.68,6.28,6.25,1.83,12.3,4.27,17.52,8.24,1.08.82,2.8.17,3.42-.9.75-1.28.18-2.6-.9-3.42-4.9-3.72-10.61-6.2-16.44-8.05s-12.43-3.39-18.72-4.65c-13.05-2.6-26.88-3.89-39.9-.39-3.51.94-6.92,2.33-9.99,4.27s-5.84,4.28-8.59,6.62c-1.03.87-.9,2.64,0,3.54,1.02,1.02,2.5.88,3.54,0h0Z"/>
  <path class="cls-3" d="m191.67,39.18c10.06-1.54,20.39,1.02,30.15,3.27,9.42,2.17,18.83,4.87,27.33,9.59,4.36,2.42,8.4,5.33,11.94,8.86,2.28,2.27,5.82-1.26,3.54-3.54-6.88-6.85-15.49-11.55-24.54-14.87-5-1.84-10.13-3.25-15.31-4.48s-10.5-2.42-15.81-3.26c-6.21-.98-12.39-1.34-18.63-.39-1.34.2-2.07,1.88-1.75,3.08.39,1.43,1.74,1.95,3.08,1.75h0Z"/>
</svg>